:version 1.10
:name ASF
:units
  mass 1
  length 1
  angle deg
:documentation
  ASF file generated by Kaydara
:root
  axis xyz
  order  tx ty tz rx ry rz
  position 0 0 0
  orientation 0 0 0
:bonedata
  begin
    id 1
    name SpineDummy
    direction 0.999998 -0.00179978 1.38929e-006
    length 3.60008
    axis 0 0 0 xyz
  end
  begin
    id 2
    name Spine
    direction 0.964365 0.262802 0.0305839
    length 8.13928
    axis 1.33928 -1.75354 15.2838 xyz
    dof rx ry rz
  end
  begin
    id 3
    name Spine1
    direction 0.811168 0.572065 0.12144
    length 7.14954
    axis 2.2224 -6.9761 35.2157 xyz
    dof rx ry rz
  end
  begin
    id 4
    name Neck
    direction 0 0 0
    length 0
    axis 2.2224 -6.9761 35.2157 xyz
    dof rx ry rz
  end
  begin
    id 5
    name HeadDummy
    direction 0.810939 0.572387 0.121455
    length 3.55534
    axis 2.2224 -6.9761 35.2157 xyz
  end
  begin
    id 6
    name Head
    direction 0.998226 -0.000232542 0.0595419
    length 7.35666
    axis -3.03688 -3.41352 -0.0133467 xyz
    dof rx ry rz
  end
  begin
    id 7
    name R_ClavicleDummy
    direction 0.531669 -0.194489 -0.824319
    length 2.49392
    axis 2.2224 -6.9761 35.2157 xyz
  end
  begin
    id 8
    name R_Clavicle
    direction -0.155119 0.0480802 -0.986725
    length 4.485
    axis -54.2764 80.6538 162.779 xyz
    dof rx ry rz
  end
  begin
    id 9
    name R_UpperArm
    direction -0.955567 0.200068 -0.216484
    length 10.1122
    axis -72.9943 12.5026 168.175 xyz
    dof rx ry rz
  end
  begin
    id 10
    name R_Forearm
    direction -0.61433 0.385743 0.688332
    length 9.39148
    axis -117.015 -43.4982 147.875 xyz
    dof rx ry rz
  end
  begin
    id 11
    name R_Hand
    direction -0.699429 0.0170333 0.714499
    length 3.66324
    axis -45.0303 -36.7097 175.478 xyz
    dof rx ry rz
  end
  begin
    id 12
    name L_ClavicleDummy
    direction 0.40287 -0.36502 0.839319
    length 2.49392
    axis 2.2224 -6.9761 35.2157 xyz
  end
  begin
    id 13
    name L_Clavicle
    direction -0.231271 -0.0726419 0.970174
    length 4.485
    axis 18.4357 -75.9711 -162.563 xyz
    dof rx ry rz
  end
  begin
    id 14
    name L_UpperArm
    direction -0.917494 0.144359 0.370629
    length 10.1122
    axis 56.0417 -21.7544 171.058 xyz
    dof rx ry rz
  end
  begin
    id 15
    name L_Forearm
    direction -0.496786 0.615074 -0.612281
    length 9.39148
    axis 89.8094 37.7546 128.927 xyz
    dof rx ry rz
  end
  begin
    id 16
    name L_Hand
    direction -0.409932 0.64962 -0.640274
    length 3.66324
    axis -0.424369 32.133 128.52 xyz
    dof rx ry rz
  end
  begin
    id 17
    name L_ThighDummy
    direction -1.84081e-006 1.87549e-006 1
    length 3.13049
    axis 0 0 0 xyz
  end
  begin
    id 18
    name L_Thigh
    direction -0.947739 0.307978 0.083308
    length 17.9961
    axis 173.219 -4.77873 161.998 xyz
    dof rx ry rz
  end
  begin
    id 19
    name L_Calf
    direction -0.728814 -0.684427 0.0197583
    length 13.3367
    axis 167.331 -1.13214 -136.799 xyz
    dof rx ry rz
  end
  begin
    id 20
    name L_Foot
    direction -0.9028 0.418719 0.0981191
    length 5.8674
    axis 163.436 11.5135 -155.37 xyz
    dof rx ry rz
  end
  begin
    id 21
    name L_Toe0
    direction -0.35341 0.886259 0.299411
    length 4.75286
    axis 169.316 -17.4222 111.74 xyz
    dof rx ry rz
  end
  begin
    id 22
    name R_ThighDummy
    direction 9.32778e-007 -8.82053e-007 -1
    length 3.13049
    axis 0 0 0 xyz
  end
  begin
    id 23
    name R_Thigh
    direction -0.925064 0.37528 -0.0585023
    length 17.9961
    axis -178.698 3.35385 157.919 xyz
    dof rx ry rz
  end
  begin
    id 24
    name R_Calf
    direction -0.68969 -0.718776 -0.0876886
    length 13.3367
    axis -160.504 5.03065 -133.817 xyz
    dof rx ry rz
  end
  begin
    id 25
    name R_Foot
    direction -0.857405 0.418858 -0.299022
    length 5.8674
    axis -161.328 4.38911 -154.413 xyz
    dof rx ry rz
  end
  begin
    id 26
    name R_Toe0
    direction -0.100745 0.952789 -0.286433
    length 4.75286
    axis 171.683 16.6445 96.0359 xyz
    dof rx ry rz
  end
:hierarchy
  begin
    root SpineDummy L_ThighDummy R_ThighDummy
    SpineDummy Spine
    Spine Spine1
    Spine1 Neck
    Neck HeadDummy R_ClavicleDummy L_ClavicleDummy
    HeadDummy Head
    R_ClavicleDummy R_Clavicle
    R_Clavicle R_UpperArm
    R_UpperArm R_Forearm
    R_Forearm R_Hand
    L_ClavicleDummy L_Clavicle
    L_Clavicle L_UpperArm
    L_UpperArm L_Forearm
    L_Forearm L_Hand
    L_ThighDummy L_Thigh
    L_Thigh L_Calf
    L_Calf L_Foot
    L_Foot L_Toe0
    R_ThighDummy R_Thigh
    R_Thigh R_Calf
    R_Calf R_Foot
    R_Foot R_Toe0
  end

:SAMPLES-PER-SECOND 30
:FULLY-SPECIFIED
:DEGREES
1
root  -0.122848 33.2041 -36.1166 89.5788 -0.0176906 90.0925
Spine  -0.595264 -2.03147 -26.7489
Spine1  -0.442594 4.30847 -2.07392
Neck  3.97569e-016 0 -2.38542e-015
Head  15.1306 -5.29439 15.9789
R_Clavicle  0.479766 -18.6848 3.88917
R_UpperArm  34.9623 -10.0905 28.1514
R_Forearm  6.06491 -38.6763 23.227
R_Hand  -0.435067 9.38228 -15.0904
L_Clavicle  -0.44479 16.7534 4.26324
L_UpperArm  -15.2744 18.0076 24.5208
L_Forearm  9.46524 36.3004 39.5702
L_Hand  0.218254 1.47059 3.60054
L_Thigh  -4.89921 -1.64818 -11.6737
L_Calf  -13.0396 -10.2868 32.3206
L_Foot  5.55027 13.1391 7.30542
L_Toe0  0.505156 0.034446 -6.1361
R_Thigh  3.17363 0.532343 -17.1854
R_Calf  9.79014 14.9972 38.515
R_Foot  0.0705571 0.866751 1.68322
R_Toe0  -1.78853 -0.272788 -17.3235
2
root  -0.10433 33.1724 -36.2015 89.8689 -0.23948 89.9553
Spine  -0.700987 -1.88703 -25.7913
Spine1  -0.534239 4.16916 -2.73115
Neck  3.97569e-016 0 -2.38542e-015
Head  14.8779 -5.20516 15.5805
R_Clavicle  0.478883 -18.641 3.84126
R_UpperArm  29.5568 -9.9125 27.4821
R_Forearm  10.2643 -35.5014 21.7636
R_Hand  -0.290356 8.99196 -13.905
L_Clavicle  -0.449983 16.2318 4.16892
L_UpperArm  -12.0833 19.0781 25.2669
L_Forearm  4.88851 33.3658 38.2098
L_Hand  0.14345 1.50567 2.38789
L_Thigh  -7.07565 -1.51896 -10.9926
L_Calf  -10.7485 -9.28681 31.5602
L_Foot  5.68 13.2494 7.59858
L_Toe0  0.505156 0.034446 -6.1361
R_Thigh  3.31513 0.627079 -16.6363
R_Calf  9.78843 14.9872 37.9902
R_Foot  0.0724838 0.925319 1.83244
R_Toe0  -1.78853 -0.272788 -17.3235
3
root  -0.0614212 33.1149 -36.3612 90.3384 -0.529995 89.6012
Spine  -0.754724 -1.42736 -23.8039
Spine1  -0.571673 3.99081 -3.65375
Neck  3.97569e-016 0 -2.38542e-015
Head  14.0105 -5.48249 14.3667
R_Clavicle  0.486276 -18.1938 3.85414
R_UpperArm  18.3878 -9.60448 25.8562
R_Forearm  18.19 -28.6659 20.6456
R_Hand  -0.140708 8.25192 -12.4167
L_Clavicle  -0.452381 15.9298 3.92188
L_UpperArm  -6.02249 20.2829 27.143
L_Forearm  -3.97139 27.476 35.0336
L_Hand  0.0110872 1.49996 0.251374
L_Thigh  -10.3371 -1.31076 -9.78582
L_Calf  -7.33069 -7.40371 30.2201
L_Foot  5.8569 13.2926 8.09585
L_Toe0  0.505156 0.034446 -6.1361
R_Thigh  3.45485 0.883542 -15.7886
R_Calf  9.86629 14.9835 37.1511
R_Foot  0.0905953 1.04905 2.0198
R_Toe0  -1.78853 -0.272788 -17.3235
4
root  0.00629376 33.0614 -36.5386 90.7281 -0.8023 89.2534
Spine  -0.540756 -0.483995 -21.3115
Spine1  -0.357845 3.27744 -4.55374
Neck  3.97569e-016 0 -2.38542e-015
Head  12.7093 -5.93235 12.3857
R_Clavicle  0.495784 -17.5881 3.85537
R_UpperArm  10.9571 -9.4422 24.3066
R_Forearm  22.6469 -22.0729 19.6348
R_Hand  -0.124783 7.74151 -11.9938
L_Clavicle  -0.452261 15.938 3.63536
L_UpperArm  -5.29602 20.6855 29.3315
L_Forearm  -7.44071 23.0739 29.6577
L_Hand  -0.0822473 1.75595 -1.19165
L_Thigh  -12.3536 -1.26374 -8.61462
L_Calf  -5.32869 -5.873 29.1057
L_Foot  5.97129 13.2496 8.48304
L_Toe0  0.505156 0.034446 -6.1361
R_Thigh  3.64137 1.03011 -14.9352
R_Calf  9.86736 15.0106 36.3637
R_Foot  0.119177 1.17532 2.11924
R_Toe0  -1.78853 -0.272788 -17.3235
5
root  0.0941344 33.01 -36.7236 91.2091 -1.1438 89.0617
Spine  -0.120238 0.802319 -18.5279
Spine1  0.0356229 1.78419 -5.58554
Neck  3.97569e-016 0 -2.38542e-015
Head  11.0513 -6.03449 9.89535
R_Clavicle  0.495158 -17.1683 3.70236
R_UpperArm  12.5279 -9.56072 23.5179
R_Forearm  20.917 -18.4454 16.104
R_Hand  -0.199451 7.68176 -12.5474
L_Clavicle  -0.452899 15.5938 3.45032
L_UpperArm  -5.38512 20.5619 30.6875
L_Forearm  -7.61609 19.7264 24.4556
L_Hand  -0.0990551 2.3703 -1.30742
L_Thigh  -13.244 -1.52337 -7.47206
L_Calf  -4.41391 -4.77828 28.2405
L_Foot  6.04712 13.2217 8.73916
L_Toe0  0.505156 0.034446 -6.1361
R_Thigh  4.3063 0.854915 -13.9819
R_Calf  9.37279 15.062 35.4992
R_Foot  0.106691 1.18996 2.281
R_Toe0  -1.78853 -0.272788 -17.3235
6
root  0.185085 32.9119 -36.9547 92.1305 -1.60192 88.7811
Spine  0.314011 2.29505 -15.4015
Spine1  0.386667 0.0605877 -6.69864
Neck  3.97569e-016 0 -2.38542e-015
Head  8.9581 -5.89077 6.9352
R_Clavicle  0.491233 -16.7819 3.5165
R_UpperArm  13.8373 -9.65672 22.8765
R_Forearm  20.2928 -15.5227 13.3142
R_Hand  -0.306402 7.62838 -13.3584
L_Clavicle  -0.453147 15.0731 3.35332
L_UpperArm  -5.03678 20.0268 30.6997
L_Forearm  -6.50156 17.3874 21.1927
L_Hand  -0.0744771 3.09833 -0.849599
L_Thigh  -13.0576 -1.94191 -5.76723
L_Calf  -4.03729 -3.68538 26.747
L_Foot  6.14596 13.0547 9.20001
L_Toe0  0.505156 0.034446 -6.1361
R_Thigh  6.49669 0.550766 -12.6768
R_Calf  7.67921 14.6992 34.0819
R_Foot  0.0292105 1.11723 2.79423
R_Toe0  -1.78853 -0.272788 -17.3235
7
root  0.270076 32.6966 -37.2728 93.421 -2.20487 88.3198
Spine  0.80107 3.92007 -11.7774
Spine1  0.680131 -1.49808 -7.84375
Neck  3.97569e-016 0 -2.38542e-015
Head  6.4848 -6.00674 3.49333
R_Clavicle  0.497021 -16.0164 3.45351
R_UpperArm  15.1453 -9.48165 21.6757
R_Forearm  20.6223 -13.9074 11.8431
R_Hand  -0.436841 7.25376 -14.2137
L_Clavicle  -0.451092 15.0179 3.12946
L_UpperArm  -5.0031 18.833 29.5751
L_Forearm  -5.33319 16.3092 19.7419
L_Hand  -0.0267096 3.53175 -0.194873
L_Thigh  -10.952 -2.40862 -3.06765
L_Calf  -5.05776 -3.12229 23.7398
L_Foot  6.33716 12.5944 10.2381
L_Toe0  0.505156 0.034446 -6.1361
R_Thigh  11.8976 0.27256 -10.5597
R_Calf  3.71754 12.2877 31.614
R_Foot  0.00255511 1.40231 3.93091
R_Toe0  -1.78853 -0.272788 -17.3235
8
root  0.368252 32.2997 -37.657 94.6752 -2.9908 88.3915
Spine  1.4094 5.04491 -7.65094
Spine1  1.06951 -3.27196 -9.20451
Neck  3.97569e-016 0 -2.38542e-015
Head  3.79258 -6.33199 -0.0709109
R_Clavicle  0.497621 -14.7117 3.23664
R_UpperArm  16.9059 -9.39984 20.2363
R_Forearm  21.8752 -13.5731 11.5421
R_Hand  -0.584214 6.8619 -15.2543
L_Clavicle  -0.444931 14.8499 2.50344
L_UpperArm  -5.91339 17.7064 27.7486
L_Forearm  -3.67263 16.0834 19.4431
L_Hand  0.065689 3.52828 0.959446
L_Thigh  -9.07912 -3.52185 0.323509
L_Calf  -6.31914 -2.58584 19.3861
L_Foot  6.65867 11.8994 11.9445
L_Toe0  0.505156 0.034446 -6.1361
R_Thigh  16.9611 -0.370375 -7.16487
R_Calf  0.348433 8.0838 27.3751
R_Foot  0.276336 2.79508 5.96503
R_Toe0  -1.78853 -0.272788 -17.3235
9
root  0.506657 31.6848 -38.0169 95.855 -3.80463 89.8236
Spine  1.71446 4.70199 -3.58126
Spine1  1.39497 -5.32985 -10.3771
Neck  3.97569e-016 0 -2.38542e-015
Head  1.15045 -6.35957 -3.33355
R_Clavicle  0.452599 -12.9711 2.4999
R_UpperArm  18.8133 -9.5016 18.7541
R_Forearm  23.9666 -14.218 12.1229
R_Hand  -0.719451 6.77485 -16.3563
L_Clavicle  -0.412856 13.4945 1.41905
L_UpperArm  -8.48014 17.8089 25.6184
L_Forearm  -1.2815 16.3157 19.7536
L_Hand  0.126674 3.24424 1.77042
L_Thigh  -8.17763 -6.03965 3.69064
L_Calf  -7.25506 -1.89738 14.1955
L_Foot  7.1206 11.1063 14.2482
L_Toe0  0.505156 0.034446 -6.1361
R_Thigh  15.1766 -2.42072 -2.94863
R_Calf  1.62764 6.2935 20.2655
R_Foot  0.785191 4.92304 9.2226
R_Toe0  -1.78853 -0.272788 -17.3235
10
root  0.686199 30.9083 -38.2464 97.3932 -4.2156 92.0337
Spine  1.28789 3.26203 -0.541355
Spine1  1.21069 -6.64437 -10.1626
Neck  3.97569e-016 0 -2.38542e-015
Head  -0.945901 -6.12636 -6.20075
R_Clavicle  0.365205 -11.1476 1.58335
R_UpperArm  19.0803 -8.58515 16.5884
R_Forearm  26.1919 -16.1345 13.8784
R_Hand  -0.828027 6.84767 -17.2884
L_Clavicle  -0.341049 11.8733 0.242085
L_UpperArm  -11.9007 18.1613 23.5046
L_Forearm  -0.956253 16.9498 20.6055
L_Hand  0.0298002 2.66886 0.55467
L_Thigh  -7.61216 -9.36186 6.42642
L_Calf  -7.77732 -1.12703 8.55939
L_Foot  7.69332 10.2805 17.0111
L_Toe0  0.505156 0.034446 -6.1361
R_Thigh  13.9096 -5.44906 0.587169
R_Calf  1.87908 3.97822 12.6697
R_Foot  1.47561 7.24546 13.2255
R_Toe0  -1.78853 -0.272788 -17.3235
